<svg xmlns="http://www.w3.org/2000/svg" xmlns:xlink="http://www.w3.org/1999/xlink" width="183" height="116" viewBox="0 0 183 116">
    <defs>
        <path id="a" d="M.114 0h182v116h-182z"/>
    </defs>
    <g fill="none" fill-rule="evenodd">
        <mask id="b" fill="#fff">
            <use xlink:href="#a"/>
        </mask>
        <path fill="#272727" d="M49.643 29.031c.108.082.363-.009.542-.055.097-.025.167-.15.265-.183.53-.184.934-.515 1.215-1 .065-.111.123-.228.19-.339.186-.31.548-.633.525-.927-.045-.557.361-1.066.062-1.654-.2-.393-.205-.887-.288-1.295-.68-.13-1.156.045-1.548.497-.165.189-.381.332-.563.506-.16.151-.312.31-.451.478-.18.216-.343.446-.538.704-.077.126-.19.282-.274.453-.099.205-.23.419-.245.635-.033.475-.098.975.29 1.368.271.274.514.583.818.812m89.518 50.633c-.358.093-.37.533-.68.671-.048.022-.077.126-.115.126-.528-.006-.629.424-.82.775-.046.086-.197.11-.27.189-.218.237-.375.579-.64.714-.406.207-.186.631-.424.875s-.27.669-.67.78c-.028.007-.06.044-.067.073-.107.462-.484.717-.774 1.042-.225.253-.407.546-.643.786-.236.24-.608.39-.748.668-.152.298-.59.332-.58.734.001.068-.073.15-.132.205-.342.31-.704.6-1.034.923-.233.228-.413.51-.641.743-.193.198-.437.347-.63.546-.2.207-.345.468-.55.668-.256.251-.559.455-.822.699-.108.1-.17.25-.246.382-.242.425-.726.664-.882 1.157-.015.046-.11.075-.173.094-.364.105-.652.336-.923.583-.249.226-.473.48-.71.719-.125.126-.254.25-.383.377-.364.355-.732.705-1.09 1.067-.511.518-1.022 1.022-1.697 1.34-.24.114-.404.386-.614.573-.484.433-.97.865-1.465 1.286-.169.143-.37.246-.55.377-.094.068-.17.156-.262.213-.212.136-.425.269-.634.409-.29.195-.578.393-.864.594-.069.048-.17.104-.181.169-.039.234-.214.212-.374.29-.418.204-.89.376-1.055.746-.255.17-.421.292-.598.396-.13.077-.273.13-.408.197a2.32 2.32 0 0 0-.268.154c-.373.254-.731.531-1.117.763-.309.185-.706.254-.965.485-.512.455-1.13.582-1.75.71-.447.094-.911.118-1.37.144-.129.007-.274-.07-.394-.14a6.377 6.377 0 0 1-.715-.463c-.198-.154-.367-1.052-.199-1.114.482-.178.147-.627.377-.89.218-.248.314-.601.499-.885.13-.2.32-.363.487-.538.112-.117.242-.22.346-.345.167-.197.322-.405.476-.613.265-.354.51-.727.796-1.064.156-.183.39-.295.573-.458.518-.463 1.018-.946 1.543-1.401.408-.354.856-.66 1.259-1.02.21-.186.345-.452.542-.656.119-.123.302-.18.436-.291.342-.278.745-.52.983-.874.177-.262.411-.293.616-.436.218-.152.317-.436.58-.575.324-.169.479-.6.916-.61.024 0 .048-.052.069-.082.32-.449.85-.647 1.226-.996.502-.467 1.134-.686 1.653-1.108.668-.543 1.44-.958 2.159-1.439.226-.15.422-.344.643-.502.267-.19.552-.357.818-.549.153-.11.286-.25.427-.376.08-.39.52-.292.75-.469.118-.092.236-.185.358-.259.378-.216.76-.424 1.133-.649.423-.255.834-.534 1.258-.787.46-.274.918-.56 1.402-.787.424-.198.816-.455 1.27-.62.319-.117.764-.276.97-.7.121-.248.322-.495.684-.486.118.003.24-.103.356-.167.52-.285 1.042-.565 1.555-.86.66-.38 1.303-.788 1.967-1.158.271-.15.579-.238.873-.342.04-.014.137.03.147.066.019.063.005.195-.02.201m12.61-23.25c.187-.38.186-.85.338-1.254.145-.386.36-.75.578-1.105.388-.634.798-1.255 1.204-1.879.178-.273.364-.54.55-.808.262-.378.514-.765.798-1.126.196-.248.446-.452.66-.688.334-.368.653-.752.99-1.118.175-.191.37-.368.567-.537.24-.206.498-.391.739-.597.131-.113.234-.259.364-.373.519-.459 1.135-.706 1.811-.823.536-.092 1.068-.262 1.604-.271.357-.006.82.11 1.05.35.268.279.622.706.464 1.132-.229.619-.266 1.28-.64 1.886-.281.455-.637.838-.93 1.273-.272.406-.61.772-.948 1.127-.215.225-.499.382-.724.6-.14.136-.196.38-.35.483-.297.198-.473.465-.601.777-.177.43-.441.84-.14 1.342.113.187-.024.385-.233.501-.262.146-.531.288-.765.473-.676.537-1.294 1.138-2.09 1.526-.452.22-.896.429-1.38.565-.1.028-.17.165-.253.253l.017.115h-2.012c-.178.134-.5.067-.603-.28-.146-.496-.336-.991-.065-1.544m-80.288-6.199c-.241.394-.506.773-.771 1.152-.144.205-.307.395-.461.592a.112.112 0 0 1-.01-.003c-.117.167-.238.332-.353.502-.22.326-.42.67-.662.979-.193.248-.444.45-.654.685-.13.145-.272.3-.34.477-.238.613-.834.808-1.293 1.163-.211.163-.412.359-.65.463-.316.137-.66.219-1 .286a8.201 8.201 0 0 1-1.144.144c-.13.007-.267-.106-.373-.248-.19-.054-.38-.112-.57-.161-.338-.088-.385-.43-.574-.649-.06-.07-.088-.195-.16-.224-.435-.181-.47-.594-.6-.964-.35-1.01-.306-2.054-.284-3.093.01-.543.058-1.09.16-1.622.06-.317.35-.6.375-.912.035-.45.32-.738.494-1.098.13-.272.216-.568.314-.855.056-.167.1-.338.146-.507.013-.048-.005-.11.02-.146.241-.36.504-.706.732-1.074.221-.36.343-.807.63-1.096.329-.332.422-.776.704-1.114.492-.59.978-1.185 1.472-1.773.306-.364.636-.71.93-1.083.282-.356.51-.756.803-1.1.332-.392.717-.738 1.067-1.115.253-.273.46-.594.734-.841.455-.41.997-.73 1.412-1.174.458-.488 1.107-.513 1.623-.835.02-.012.048-.013.072-.016.566-.05 1.141-.19 1.695-.128.548.06 1.143.22 1.374.858.032.087-.027.204-.029.307-.005.273.018.549-.01.819-.029.27-.091.538-.164.8-.077.279-.185.549-.277.823-.012.034 0 .09-.022.106-.574.408-.467 1.186-.904 1.67-.171.189-.309.407-.464.611-.298.39-.571.805-.903 1.163-.33.357-.728.65-1.081.986-.127.121-.199.297-.314.433-.383.447-.802.867-1.154 1.338-.235.316-.447.681-.547 1.058-.15.567.195 1.167.891 1.204.49.026.945.004 1.359-.373.165-.15.466-.19.664-.386.173-.17.394-.292.593-.436l.12.064c-.061.158-.102.329-.19.47-.24.391-.514.763-.753 1.156-.32.521-.566 1.096-.942 1.57-.289.363-.493.76-.73 1.147M57.97 37.033c.073-.239.097-.512.232-.71a5.782 5.782 0 0 0 .798-1.75c.076-.282.21-.467.38-.664.037-.043.093-.094.092-.14-.005-.598.433-1.03.573-1.575.098-.377.202-.754.334-1.121.096-.27.238-.525.363-.785.02-.042.088-.083.08-.111-.1-.421.289-.633.401-.96.17-.493.325-.991.507-1.48.096-.26.235-.504.356-.756.326-.681.654-1.362.978-2.045.109-.23.213-.464.308-.7.204-.509.39-1.024.606-1.527.068-.16.235-.278.304-.438.215-.504.385-1.03.613-1.527.177-.389.42-.747.623-1.124.055-.101.063-.226.103-.337.047-.13.097-.26.16-.382.281-.55.747-.977.942-1.605.122-.393.222-.862.605-1.15.065-.05.078-.167.12-.251.294-.605.588-1.209.887-1.811.107-.218.232-.426.334-.646.196-.425.367-.862.58-1.279.071-.138.239-.226.359-.335a7.612 7.612 0 0 1 1.437-2.103c.078-.08.264-.056.517-.1-.079.557-.134 1.032-.216 1.502-.09.514-.182 1.03-.31 1.535-.092.364-.25.71-.368 1.069-.177.54-.34 1.085-.521 1.624-.06.175-.168.333-.233.507-.085.227-.134.468-.229.69-.071.167-.216.303-.283.47-.12.3-.19.618-.308.917-.232.584-.59 1.142-.695 1.746-.096.556-.47.915-.657 1.391-.189.482-.463.93-.671 1.405-.191.438-.338.896-.52 1.338-.037.092-.14.157-.193.212l-.381.726c-.212.404-.412.814-.638 1.21-.134.235-.324.436-.46.67-.2.346-.362.715-.566 1.059-.308.518-.643 1.02-.956 1.534-.112.182-.182.389-.294.57-.267.43-.554.849-.817 1.282-.064.106-.065.251-.144.346-.085.119-.19.228-.25.36-.198.422-.363.86-.572 1.277-.11.222-.288.41-.43.617-.307.448-.556.953-.932 1.331-.282.284-.385.66-.677.941-.299.287-.416.758-.64 1.132-.252.42-.536.82-.858 1.31-.178-.584.104-.956.227-1.359m29.913 7.16c.078-.174.149-.36.267-.506.274-.34.39-.775.63-1.107.386-.537.752-1.099 1.097-1.65.237-.38.528-.774.682-1.234.16-.479.446-.911.953-1.13.048-.02.057-.12.098-.171.095-.12.193-.24.301-.349.09-.09.186-.177.292-.246.114-.074.242-.125.363-.186.03.03.06.06.088.092-.052.223-.058.473-.165.666a25.795 25.795 0 0 1-1.12 1.88c-.413.617-.948 1.16-1.301 1.806-.419.766-1.083 1.332-1.519 2.076-.09.155-.331.226-.51.32-.037.02-.142-.016-.158-.052a.285.285 0 0 1 .002-.208m22.548-16.296c.26-.422.608-.794.695-1.308.004-.021.025-.041.043-.057.471-.42.664-1.025.937-1.558.381-.743.764-1.484 1.167-2.216.346-.63.65-1.286 1.028-1.894.181-.29.298-.619.473-.871.157-.228.32-.468.47-.71.273-.434.544-.869.823-1.299.111-.17.21-.372.37-.482.315-.22.34-.59.522-.874.173-.27.365-.528.538-.798.28-.437.622-.825.834-1.319.255-.59.627-1.127 1.033-1.636.242-.305.387-.688.628-.993.577-.728.725-1.722 1.482-2.342.177-.145.219-.446.38-.623a4.4 4.4 0 0 1 .722-.606c.202-.143.567.058.549.323-.036.528.012 1.048-.099 1.591-.171.837-.685 1.485-.974 2.249-.152.402-.524.718-.77 1.09-.154.23-.258.495-.383.745-.177.356-.327.73-.536 1.066-.18.29-.44.527-.643.805-.371.508-.72 1.032-1.09 1.542-.105.145-.271.247-.369.396-.068.104-.067.254-.097.383l-.07-.058c-.218.256-.444.506-.654.769-.14.174-.263.362-.382.55-.086.137-.143.293-.231.429-.094.145-.211.274-.315.412-.289.384-.566.777-.866 1.153-.482.605-.987 1.192-1.464 1.801-.155.199-.222.469-.381.662-.244.298-.538.554-.8.837-.053.055-.041.167-.089.23-.202.265-.421.517-.624.782-.243.317-.472.645-.713.965-.216.285-.437.566-.66.847-.06.076-.165.133-.193.217-.053.155-.105.323-.285.194-.066-.048-.067-.295-.006-.394m71.56 28.424c-.089-.14-.218-.255-.334-.376-.22-.226-.577-.226-.89-.106-.556.213-.9.73-1.486.921-.501.164-.914.606-1.417.751-.42.121-.656.441-1.008.619-.362.183-.679.456-1.038.647-.384.204-.804.34-1.192.537-.559.286-1.103.601-1.654.902-.318.173-.764.267-.927.534-.289.471-.811.416-1.17.712-.385.315-.928.43-1.346.713-.303.207-.616.296-.954.369-.106.023-.2.094-.304.137a8.218 8.218 0 0 1-.414.156c-.097.034-.198.055-.294.09-.469.17-.769.65-1.309.703-.172.018-.34.122-.501.207-.5.264-.988.554-1.495.804-.547.269-1.109.506-1.667.749-.183.08-.437.077-.552.207-.282.319-.616.435-.993.486-.42.244-.87.424-1.304.635-.463.226-.913.48-1.397.738-.075.058-.171.168-.293.22-.505.216-1.036.38-1.525.627-.696.352-1.361.767-2.047 1.14-.238.13-.499.218-.748.33-.227.102-.462.194-.676.32-.206.12-.374.31-.586.412-.299.143-.632.213-.933.353-.482.225-.944.494-1.426.72-.205.096-.438.127-.692.198v-.498c.296-.006.535-.056.583-.392.008-.06.096-.104.136-.163.258-.38.505-.767.772-1.14.249-.346.518-.678.854-1.116-.056-.315.293-.607.53-.941.21-.299.487-.55.687-.855.34-.514.614-1.073.966-1.577.362-.52.782-1 1.181-1.493.13-.159.29-.295.407-.463.348-.508.656-1.047 1.03-1.535.376-.491.812-.937 1.222-1.401.157-.178.327-.345.472-.533.211-.274.366-.604.614-.834.443-.411.696-.962 1.142-1.383.522-.491.935-1.115 1.315-1.732.135-.22.343-.276.48-.445.236-.294.455-.604.713-.878.45-.48.933-.928 1.386-1.405.27-.285.509-.6.76-.902.248-.299.502-.594.738-.902.154-.202.28-.426.459-.704.738-.25 1.156-1.578.693-2.609l-1.452.715c.08-.373.168-.623.182-.876.026-.458.005-.92.008-1.38.005-.742-.43-1.239-.942-1.688-.176-.155-.408-.253-.563-.424-.388-.43-.88-.502-1.415-.507-.267-.002-.538-.112-.798-.086-.395.04-.785.23-1.174.222-.486-.011-.9.132-1.317.332-.085.04-.165.092-.25.132-.397.182-.832.31-1.184.555-.532.371-1.15.603-1.615 1.091-.314.33-.73.56-1.085.854-.248.204-.465.443-.703.659-.356.323-.718.638-1.075.96-.02.02.002.08-.015.108-.055.088-.107.186-.185.25-.226.189-.485.343-.693.548-.209.207-.361.47-.558.692a148.03 148.03 0 0 1-1.555 1.716c-.189.207-.407.39-.58.608-.298.374-.566.77-.855 1.151-.342.452-.687.903-1.043 1.344-.472.584-.95 1.162-1.44 1.732-.205.24-.451.445-.663.68-.336.373-.628.79-.993 1.13-.48.447-1.011.84-1.53 1.245-.066.052-.198.009-.287.042-.292.11-.693.029-.794.489-.191-.03-.443.002-.507-.093-.22-.327-.894-.472-.49-1.082.011-.018 0-.05.003-.074.037-.27.068-.526.032-.815-.041-.338.146-.708.249-1.06.11-.377.197-.768.364-1.12.235-.494.541-.954.805-1.436.072-.133.08-.302.156-.431.36-.608.736-1.205 1.1-1.81.24-.397.453-.81.708-1.198.345-.527.72-1.036 1.081-1.552.368-.526.737-1.053 1.107-1.578.28-.398.563-.794.842-1.194.282-.405.557-.815.838-1.22a10.652 10.652 0 0 1 .952-1.21c.197-.216.425-.405.612-.63.223-.266.394-.577.627-.832.315-.344.682-.64.998-.984.118-.128.153-.332.226-.501l-.101-.067c-.325.136-.663.245-.97.412-.445.243-.859.544-1.302.79-.355.198-.741.338-1.1.53-.411.22-.795.497-1.214.7-.317.151-.671.226-1.01.332-.302.093-.604.184-.908.27-.251.071-.506.132-.758.2-.141.037-.281.08-.524.148.06-.248.06-.416.138-.534.27-.414.202-.869.195-1.317-.001-.07-.069-.183-.128-.2-.275-.082-.36-.39-.693-.462-.452-.098-.852-.133-1.299 0-.228.068-.371.288-.53.316-.387.068-.536.416-.756.615-.34.306-.52.81-.71 1.254-.188.436-.364.895-.066 1.372.138.22.266.453.355.696.05.14.068.34.003.462-.131.245-.335.45-.497.68-.213.304-.412.62-.622.927-.13.191-.268.378-.349.491-.238.302-.424.525-.595.759-.247.337-.477.686-.724 1.024-.16.218-.33.427-.504.634-.269.318-.55.627-.815.948-.195.235-.354.504-.565.72-.228.233-.52.403-.744.637-.312.325-.571.702-.883 1.026-.716.744-1.432 1.488-2.315 2.041-.223.14-.43.307-.644.461-.134.06-.234.158-.355.207-.268.109-.542.246-.821.267-.192.014-.503-.096-.574-.243-.167-.345-.295-.743-.307-1.124-.018-.54.052-1.088.146-1.622.047-.266.233-.506.354-.759a1.71 1.71 0 0 0 .09-.22c.072-.221.13-.447.21-.665.065-.173.159-.334.237-.502.185-.397.348-.806.557-1.19.24-.437.55-.837.774-1.28.27-.536.413-1.134.85-1.583.144-.147.238-.343.348-.52.232-.373.455-.75.688-1.122.266-.426.545-.843.803-1.273.065-.108.041-.27.11-.373.154-.228.358-.422.51-.652.152-.229.23-.514.403-.721.326-.391.412-.817.349-1.295-.676-.115-.96-.013-1.552.223-.596.237-.707.852-1.11 1.237-.26.249-.298.716-.523 1.019-.448.602-.71 1.327-1.253 1.862-.017.016-.028.038-.04.058-.282.48-.567.958-.845 1.44-.126.217-.228.448-.361.66-.207.326-.377.704-.66.944-.373.314-.505.771-.823 1.108-.252.267-.462.574-.656.819l-.917 1.399c-.114.16-.19.355-.327.487-.258.25-.187.745-.638.842-.011.002 0 .074-.015.106-.054.111-.101.229-.175.326-.337.448-.782.845-1.004 1.344-.402.904-1.167 1.505-1.709 2.286-.167.242-.529.347-.702.586-.305.423-.769.44-1.18.517-.59.11-.855-.205-1.158-.784-.343-.658-.347-1.36-.393-2.043-.052-.747.075-1.508.13-2.262.005-.066.05-.131.083-.194.127-.243.39-.504.357-.722-.07-.47.33-.741.355-1.155.012-.189.14-.373.224-.555.211-.45.403-.912.649-1.342.425-.745.624-1.612 1.259-2.248.226-.226.375-.54.52-.835.209-.42.372-.861.572-1.285.089-.189.243-.346.331-.535.194-.415.353-.847.553-1.26.08-.163.24-.285.344-.44.105-.152.183-.321.277-.48.054-.093.119-.179.172-.271.09-.16.17-.325.266-.48.05-.081.144-.136.186-.22.188-.37.402-.734.533-1.126.097-.288.525-.45.333-.845-.51-.06-.742.045-.872.376-.148.039-.318.036-.417.118-.417.353-.852.672-1.344.914-.445.219-.87.477-1.32.688-.352.166-.724.294-1.093.422-.233.082-.484.111-.712.203-.565.227-1.108.52-1.685.705-.51.163-1.054.218-1.585.314-.33.06-.667.094-.995.162-.663.137-1.317.324-1.984.425-.635.096-1.283.112-1.925.16-.279.02-.441.164-.412.444.027.257.165.513.148.762-.04.587.18 1.195-.14 1.764-.09.161-.165.367-.15.544.037.439-.144.797-.305 1.179-.142.336-.197.71-.311 1.059-.078.238-.2.461-.289.696-.171.446-.4.86-.512 1.344-.088.382-.482.687-.714 1.042-.248.378-.465.775-.767 1.286l-.806 1.223.08.066-.293.095.068.068c-.103.16-.177.357-.315.476-.272.234-.228.705-.637.822.046.362-.251.515-.435.746-.46.583-.89 1.19-1.341 1.778-.136.177-.316.321-.46.493-.449.532-.89 1.07-1.334 1.606-.108.129-.238.242-.328.382-.23.356-.405.753-.67 1.079-.463.569-.98 1.093-1.465 1.644-.165.188-.286.42-.463.594-.188.185-.426.318-.63.49-.69.578-1.318 1.238-2.273 1.408-.193.034-.336.18-.55.025-.17-.121-.458-.13-.56-.28-.34-.497-.675-1.008-.786-1.623-.038-.212-.137-.419-.141-.63-.017-.82-.008-1.64-.006-2.46 0-.098.003-.199.023-.295.088-.417.18-.833.274-1.249.026-.115.065-.227.093-.342.118-.488.234-.977.353-1.465.028-.116.051-.234.094-.344.122-.309.343-.608.362-.92.045-.773.481-1.412.631-2.143.026-.124.106-.238.127-.362.062-.365.105-.734.16-1.1.007-.043.041-.085.072-.119.273-.297.355-.66.369-1.05.002-.095-.002-.213.05-.281.384-.507.49-1.128.704-1.703.086-.231.061-.547.211-.702.493-.51.517-1.215.787-1.81.194-.427.393-.897.5-1.382.044-.206.262-.382.281-.583.047-.49.244-.907.45-1.337.229-.475.408-.975.591-1.47.243-.657.804-1.183.792-1.944 0-.021.02-.044.031-.066.238-.437.487-.868.709-1.313.108-.216.139-.47.25-.683.195-.371.44-.716.636-1.085.246-.46.372-.998.913-1.239.06-.027.102-.101.143-.16.117-.166.224-.338.345-.501.178-.241.43-.45.534-.719.243-.62.773-1.012 1.127-1.541.133-.199.4-.315.507-.521.269-.512.517-1.03.94-1.44.134-.13.257-.273.41-.437.046-.097.094-.257.187-.383.225-.303.509-.568.692-.892.093-.165.21-.218.333-.318.153-.122.208-.375.366-.48.333-.219.492-.56.719-.855.264-.345.555-.669.834-1.002.143-.18.302-.326.444-.487.282-.32.542-.656.832-.967.25-.268.491-.518.623-.884.092-.256.328-.461.507-.684.063-.078.154-.134.218-.212.225-.274.427-.57.671-.826.194-.203.473-.328.654-.54.337-.394.63-.827.943-1.244.156-.21.273-.489.48-.61.296-.173.416-.437.56-.7.222-.408.68-.648.791-1.13.002-.008.023-.01.032-.018.271-.273.563-.529.81-.822.388-.464.745-.954 1.118-1.43.36-.458.725-.912 1.08-1.372.063-.08.076-.2.143-.275.21-.236.464-.438.649-.692.294-.404.54-.841.816-1.258.222-.336.457-.663.685-.995.077-.111.152-.224.227-.336.192-.277.358-.564.538-.841.12-.184.26-.354.416-.563.187-.333.373-.72.612-1.07.157-.23.39-.404.33-.729-.008-.04.024-.09.047-.13.23-.415.478-.82.683-1.245.102-.211.072-.494.193-.686.344-.543.438-1.133.439-1.754 0-.085-.003-.193.044-.25.25-.305.269-.657.254-1.028-.014-.36 0-.72-.005-1.08a.68.68 0 0 0-.05-.283 67.041 67.041 0 0 0-.726-1.418c-.278-.53-.522-1.077-1.133-1.34-.233-.101-.483-.285-.598-.5-.109-.204-.22-.22-.395-.223-.585-.014-1.144.032-1.707.269-.389.163-.82.207-1.096.58-.02.026-.055.041-.085.06-.49.301-1.053.451-1.429.973-.442.613-1.005 1.139-1.518 1.7-.126.138-.273.259-.39.404-.364.456-.718.92-1.078 1.38-.247.316-.503.623-.744.942-.208.276-.404.562-.601.847-.254.366-.507.732-.754 1.103-.108.162-.204.333-.303.502-.258.436-.512.876-.775 1.31-.108.178-.236.346-.355.518-.07.127-.15.229-.215.339-.147.243-.286.49-.429.736-.106.183-.218.362-.316.55-.238.455-.444.929-.708 1.367-.393.648-.81 1.283-1.245 1.903-.378.538-.318 1.288-.86 1.742-.036.03-.012.122-.033.178-.065.172-.116.355-.213.507-.242.38-.433.791-.665 1.177-.323.54-.546 1.175-.73 1.776-.144.47-.448.845-.56 1.343-.161.715-.6 1.367-.924 2.044-.116.245-.258.48-.364.728-.202.473-.388.953-.578 1.43-.115.293-.22.59-.338.881-.077.19-.165.377-.257.561-.051.102-.14.187-.177.293-.088.256-.145.523-.233.779-.053.155-.158.293-.212.448-.167.486-.252 1.015-.5 1.452-.191.334-.335.65-.452 1.02-.243.763-.625 1.483-.953 2.22-.175.396-.434.765-.356 1.237.012.073-.035.163-.071.236-.229.455-.51.891-.682 1.367-.267.743-.45 1.518-.997 2.127-.114.128-.239.248-.344.383-.444.57-.863 1.162-1.332 1.712-.281.33-.551.672-.89.96-.256.22-.392.577-.604.854-.422.55-.86 1.089-1.291 1.632-.402.506-.8 1.016-1.211 1.516-.144.174-.33.312-.48.483-.202.232-.341.568-.592.697-.344.179-.398.539-.648.776-.443.419-.688 1.052-1.14 1.457-.29.26-.532.55-.796.826-.048.05-.096.1-.148.146-.208.184-.424.357-.622.55-.14.138-.254.303-.38.456l-.07-.05-.028.29c-.153.11-.303.179-.401.292-.19.22-.331.481-.527.694-.29.316-.607.61-.92.905-.8.756-1.62 1.49-2.397 2.268-.293.293-.546.423-.896.158-.292-.222-.701-.4-.834-.7-.21-.47-.297-1.024-.316-1.546-.023-.614.083-1.231.134-1.847.003-.036.01-.078.03-.104.284-.354.55-.708.274-1.196-.021-.037.03-.14.073-.187.152-.16.311-.315.477-.46.237-.208.503-.386.718-.612.245-.257.446-.554.672-.83.185-.224.363-.457.57-.66.237-.23.603-.383.736-.655.249-.513.657-.87 1.009-1.281.494-.578 1.013-1.134 1.521-1.7.024-.027.042-.06.065-.087.126-.154.254-.307.381-.46l.076.053.022-.325c.099-.057.23-.086.272-.163.443-.82 1.12-1.47 1.596-2.28.362-.619.79-1.223 1.174-1.842.305-.49.608-.983.898-1.482.1-.172.161-.366.238-.551.053-.13.113-.26.15-.396.074-.278.046-.69.221-.81.284-.194.214-.405.223-.628.014-.31.058-.634-.01-.928-.078-.335-.261-.647-.41-.963-.025-.051-.11-.082-.174-.107-.317-.128-.676-.114-.95-.407-.135-.145-.436-.18-.663-.18-.29 0-.581.093-.874.127-.114.014-.233-.03-.35-.041a.35.35 0 0 0-.167.013c-.25.107-.497.22-.742.338-.346.168-.71.31-1.029.52a28.42 28.42 0 0 0-1.57 1.133c-.238.18-.453.392-.672.595-.253.236-.506.47-.746.719-.172.179-.301.404-.487.566-.322.28-.623.567-.786.974-.043.108-.087.252-.174.3-.344.193-.449.57-.678.848-.378.46-.693.972-1.033 1.463-.249.358-.5.715-.74 1.079-.035.054.005.156-.027.216-.103.2-.222.389-.335.582-.25.405-.459.834-.657 1.268-.268.587-.54 1.173-.79 1.768-.185.444-.304.92-.516 1.35-.202.408-.407.8-.408 1.27 0 .088-.054.176-.085.263-.118.331-.25.658-.35.994-.042.138.03.324-.035.44-.374.661-.37 1.39-.415 2.112-.015.248.027.502-.012.744-.03.188-.109.395-.232.537-.453.522-1.048.858-1.645 1.19-.117.065-.214.168-.39.31-.027.006-.178-.005-.28.062-.46.294-.891.634-1.36.913-.43.257-.871.562-1.346.659-.708.145-1.45.132-2.177.173-.276.015-.393-.156-.393-.422.002-.51-.002-1.019.003-1.528 0-.147.01-.296.041-.438.078-.362.19-.717.249-1.08.073-.456.107-.917.159-1.376.003-.024.004-.056.02-.07.303-.284.3-.696.448-1.044.312-.734.664-1.448.908-2.213.12-.378.376-.712.556-1.073.214-.433.527-.858.588-1.314.078-.58.473-.986.622-1.523.142-.51.5-.959.755-1.44.274-.516.542-1.036.807-1.558.075-.15.113-.319.198-.461.207-.349.453-.675.641-1.032.21-.398.356-.83.56-1.231.282-.56.596-1.102.888-1.656.135-.256.25-.524.377-.785.162-.333.313-.673.494-.996.283-.501.582-.993.885-1.483.095-.154.226-.285.34-.427.076-.085.06-.226.116-.323.248-.423.532-.824.774-1.248.3-.526.576-1.066.856-1.602.214-.41.347-.888.645-1.218.329-.364.45-.81.695-1.2.122-.195.227-.401.34-.602.126-.186.167-.419.28-.608.4-.676.828-1.336 1.241-2.004.305-.493.605-.99.904-1.487.06-.1.101-.215.169-.31.208-.294.45-.567.632-.877.2-.343.33-.727.526-1.074.27-.48.568-.945.863-1.41.21-.333.322-.745.726-.932.066-.03.119-.118.15-.191.169-.4.3-.82.5-1.204.273-.523.58-1.029.901-1.524.428-.66.88-1.305 1.255-2 .246-.458.556-.89.505-1.454-.005-.059.047-.131.089-.185a1.65 1.65 0 0 0 .352-1.053c-.002-.124-.035-.273.02-.367.308-.533.307-1.103.262-1.634-.132-.09-.222-.171-.328-.216-.158-.068-.333-.164-.492-.15-.216.02-.44.102-.631.211-.25.144-.489.32-.7.517-.381.352-.746.723-1.103 1.1-.194.205-.358.44-.536.66-.065.07-.04.203-.095.287-.233.363-.499.705-.732 1.068-.305.473-.589.96-.88 1.44-.168.277-.33.556-.5.83-.278.446-.6.87-.833 1.34-.263.532-.421 1.117-.674 1.657-.184.394-.451.748-.673 1.125-.077.13-.13.275-.188.416-.167.399-.278.835-.509 1.192-.566.874-.999 1.813-1.444 2.749-.171.362-.372.709-.55 1.067-.205.41-.4.826-.599 1.239-.057.114-.145.218-.21.335-.098.179-.142.407-.279.542-.347.344-.4.816-.588 1.226-.173.378-.143.848-.507 1.145-.028.023-.063.046-.076.077-.216.486-.425.975-.643 1.459-.088.193-.205.374-.292.568-.178.4-.329.815-.522 1.208-.16.324-.383.615-.544.938-.26.52-.492 1.053-.736 1.581l-.573 1.242c-.212-.001-.35-.126-.348-.4.002-.324.008-.647-.004-.97a.572.572 0 0 0-.093-.291c-.255-.366-.56-.701-.777-1.088-.215-.383-.608-.542-.932-.655-.405-.14-.812-.274-1.215-.431-.244-.095-.558-.057-.83-.015-.299.045-.583.178-.878.249-.48.114-.972.186-1.446.322a3.329 3.329 0 0 0-.875.398c-.323.21-.61.476-.906.724-.13.108-.236.246-.37.347-.274.206-.596.36-.832.6-.733.745-1.435 1.52-2.149 2.283-.12.13-.272.242-.355.393-.31.56-.857.918-1.161 1.51-.18.351-.551.669-.793 1.036-.158.24-.317.48-.473.722-.354.548-.709 1.096-1.058 1.647-.173.272-.335.55-.502.826-.105.128-.075.35-.17.482-.315.45-.307 1.082-.809 1.422-.02.014-.005.074-.021.106-.182.357-.371.711-.549 1.071-.221.452-.433.909-.65 1.363-.046.094-.147.192-.136.276.049.376-.078.66-.372.882a.305.305 0 0 0-.078.112c-.127.265-.229.547-.383.795-.292.472-.618.922-.921 1.387a69.952 69.952 0 0 0-1.04 1.64c-.116.19-.17.42-.295.603-.256.376-.617.702-.79 1.11-.151.353-.435.57-.61.88-.162.284-.337.56-.511.835-.12.187-.25.368-.375.55-.03.085-.124.13-.195.2-.462.446-.906.914-1.385 1.341-.175.155-.903-.025-1.016-.196-.223-.338-.386-.689-.31-1.115.06-.34.079-.689.15-1.026.08-.378.238-.742.288-1.122.07-.536.434-1.006.337-1.574-.002-.014.04-.03.05-.051.127-.304.28-.6.372-.916.125-.428.172-.88.31-1.303.193-.591.106-1.275.576-1.777.045-.048.009-.17.016-.256.007-.085.01-.173.036-.253.133-.4.278-.797.408-1.198.082-.254.125-.521.222-.768.16-.408.453-.79.506-1.207.082-.64.467-1.082.776-1.581.23-.37.486-.722.73-1.082.106-.155.217-.307.318-.464.257-.397.507-.797.765-1.193.196-.3.402-.596.602-.895.189-.282.362-.575.565-.847.378-.506.778-.996 1.155-1.502.163-.218.314-.46.452-.676.148-.234.29-.475.483-.682.023-.024.042-.068.037-.098-.043-.258.124-.393.289-.542.074-.067.112-.173.164-.264.222-.391.425-.796.671-1.172.405-.62.866-1.196 1.162-1.895.216-.51.611-.943.926-1.41.42-.626.844-1.25 1.258-1.88.125-.189.22-.396.331-.594.265-.475.526-.953.797-1.424.107-.188.235-.362.354-.543.054-.11.16-.196.21-.307.15-.326.424-.571.504-.957.05-.247.32-.448.492-.67l.353-.451c0-.004-.021-.134.03-.222.312-.53.641-1.05.96-1.576.048-.079.053-.226.113-.25.316-.119.32-.468.524-.676.24-.245.397-.577.568-.884.199-.357.375-.727.56-1.09.09-.101.171-.211.24-.328.066-.11.113-.231.18-.341.386-.652.77-1.304 1.167-1.95.13-.211.323-.387.433-.606.2-.402.378-.818.53-1.241.085-.234.253-.39.38-.58.254-.383.398-.84.587-1.268l.353-.803c.08-.18.16-.358.237-.539.066-.158.125-.32.187-.48.033-.086.059-.175.102-.255.166-.301.36-.589.502-.9.171-.38.298-.779.45-1.166.165-.42.333-.83.31-1.304a1.04 1.04 0 0 1 .182-.638c.456-.593.188-1.303.336-1.947.128-.553-.039-1.176-.086-1.767-.034-.43.032-.85-.125-1.29-.262-.733-.636-1.314-1.333-1.692-.684-.373-1.346-.698-2.078-.125-.04.032-.125.002-.18.022-.2.071-.41.128-.59.235-.152.092-.26.254-.4.37-.22.181-.47.328-.67.528-.264.265-.488.57-.736.853-.144.164-.31.308-.453.474-.14.165-.263.347-.453.6-.031.057-.083.237-.2.347-.328.305-.567.66-.748 1.067-.14.314-.297.623-.476.917-.21.344-.524.642-.664 1.009-.29.756-.87 1.345-1.116 2.13-.145.466-.442.887-.693 1.316-.129.22-.34.395-.45.622-.188.388-.324.8-.485 1.202-.07.173-.132.355-.229.513-.204.333-.528.627-.622.984-.131.5-.57.866-.549 1.414.002.033-.079.061-.1.103-.251.475-.516.945-.738 1.433-.151.33-.199.712-.37 1.029-.178.332-.289.69-.511 1.014-.337.49-.538 1.076-.776 1.63-.123.287-.18.602-.308.885-.089.197-.33.3-.296.587.02.16-.07.339-.131.502-.096.263-.217.516-.313.779-.16.442-.301.892-.468 1.333-.073.193-.2.364-.28.555-.116.268-.208.546-.316.817-.085.214-.193.42-.27.636-.145.415-.269.838-.415 1.252-.106.301-.253.588-.346.893-.174.571-.307 1.156-.487 1.726-.164.52-.35 1.033-.558 1.537-.24.58-.264 1.254-.748 1.728-.028.027-.014.095-.027.143-.047.18-.09.363-.149.54-.096.288-.2.575-.31.86-.072.184-.164.361-.236.546-.073.184-.138.37-.195.56-.03.103-.027.217-.058.32-.176.579-.352 1.157-.54 1.731-.132.395-.278.785-.43 1.172-.166.427-.419.829-.331 1.323a.54.54 0 0 1-.046.28c-.226.552-.49 1.09-.682 1.654-.191.565-.305 1.155-.467 1.73-.052.189-.1.41-.227.54-.266.273-.279.617-.37.943-.07.248-.146.495-.242.733-.105.264-.25.484-.474.694-.375.354-.64.824-.98 1.22-.283.33-.617.616-.912.938-.2.218-.365.47-.557.698-.114.136-.25.255-.376.381-.09.139-.243.217-.349.336-.157.177-.277.386-.419.576-.172.231-.35.458-.527.685-.162.207-.308.432-.494.614-.255.25-.558.45-.809.703-.258.26-.455.582-.716.838a86.986 86.986 0 0 1-2.362 2.228c-.462.417-.966.785-1.455 1.171-.044.035-.115.032-.173.05-.237.07-.47.175-.711.206a3.064 3.064 0 0 1-.789-.012c-.145-.02-.278-.178-.418-.18-.442-.01-.537-.412-.755-.654-.125-.138-.07-.424-.171-.598-.387-.66-.27-1.377-.285-2.08a1.086 1.086 0 0 1 .023-.258c.088-.388.186-.774.27-1.162.021-.096-.016-.207.015-.296.169-.482.537-.895.45-1.47-.025-.165.053-.419.175-.52.404-.334.219-.836.405-1.23.159-.335.21-.72.352-1.065.133-.327.357-.588.44-.973.131-.604.478-1.159.719-1.742.216-.525.398-1.065.62-1.588.217-.512.514-.993.686-1.518.133-.406.251-.807.484-1.169.078-.122.174-.271.165-.402a.756.756 0 0 1 .308-.692.422.422 0 0 0 .139-.159c.117-.305.21-.62.337-.921.095-.225.24-.428.337-.652.186-.429.37-.86.522-1.3.137-.402.225-.82.341-1.23.042-.145.101-.285.152-.428l-.094-.08c-.124.044-.32.054-.36.137-.216.459-.595.798-.856 1.23-.423.694-1.034 1.273-1.559 1.907-.206.248-.398.508-.586.77-.212.298-.39.622-.622.901-.365.438-.76.852-1.15 1.268-.111.118-.255.203-.38.308-.13.109-.332.204-.365.34-.116.475-.563.674-.793 1.046-.118.19-.222.397-.378.548-.242.234-.522.43-.789.638-.158.123-.342.22-.478.365-.19.203-.326.461-.524.656-.265.262-.57.483-.852.727-.4.344-.788.705-1.2 1.031-.153.12-.364.164-.516.23l-.417-1.742c-.116-.065-.207-.115-.298-.168-.4-.232-.814-.3-1.214-.03-.136.091-.185.352-.32.398-.397.136-.528.495-.75.776-.31.388-.447.857-.52 1.335a3.72 3.72 0 0 0 0 .93c.024.24.065.51.195.702.247.368.574.681.843 1.036a.47.47 0 0 1 .048.379c-.148.416-.457.816-.47 1.23-.018.62-.39 1.07-.55 1.613-.08.27-.264.506-.366.77-.082.216-.084.465-.174.677-.232.551-.494 1.09-.744 1.634-.244.53-.496 1.057-.73 1.592-.111.257-.155.546-.286.79-.234.435-.524.84-.764 1.272-.191.347-.322.727-.517 1.072-.242.427-.524.83-.783 1.247-.133.214-.272.427-.374.656-.143.322-.214.68-.386.982-.286.504-.636.97-.943 1.461-.292.468-.556.953-.848 1.42-.153.246-.451.45-.49.703-.078.505-.64.709-.655 1.218-.453.131-.593.58-.887.874a2.655 2.655 0 0 1-.857.583c-.495.212-.939.329-1.419.062-.326-.182-.699-.337-.742-.796-.003-.04-.062-.07-.083-.112-.124-.245-.311-.48-.353-.74-.094-.573-.162-1.159-.148-1.738.009-.403-.259-.803-.02-1.207.016-.026.002-.074-.003-.11-.047-.302-.125-.602-.136-.905-.03-.798.098-1.58.278-2.358.103-.444.179-.914.146-1.364-.049-.675.366-1.18.525-1.776.037-.141.178-.252.25-.389.233-.439.446-.89.686-1.324.243-.438.705-.76.69-1.333 0-.045.018-.115.05-.132.511-.271.501-.845.656-1.28.149-.42.064-.937.015-1.404-.017-.167-.202-.363-.362-.45-.099-.054-.357.026-.438.13a6.22 6.22 0 0 0-.66 1.038c-.108.215-.113.482-.158.727-.016.085.007.183-.026.257-.234.524-.498 1.035-.71 1.567-.141.352-.169.75-.324 1.093-.166.365-.327.715-.312 1.125.002.057-.011.136-.049.171-.356.342-.307.81-.395 1.235-.021.103-.031.217-.083.305-.237.405-.482.806-.734 1.202-.258.406-.56.788-.78 1.213-.137.263-.382.491-.457.714-.144.43-.51.668-.682 1.052-.086.193-.225.364-.34.545-.035.095-.146.144-.213.228-.237.297-.457.608-.685.912-.186.247-.351.514-.566.732-.212.212-.475.374-.716.558-.289.222-.566.464-.87.663-.602.395-1.267.569-1.988.462-.111-.016-.238-.045-.319-.114-.246-.212-.504-.423-.7-.678-.278-.364-.505-.753-.49-1.256.027-.882-.006-1.765.015-2.647.008-.33.015-.705.169-.976.294-.519.247-1.056.276-1.602.02-.368.09-.734.154-1.098.03-.17.102-.33.146-.498.12-.458.235-.917.354-1.375.026-.102.074-.2.09-.303.058-.368.103-.738.162-1.106.008-.052.072-.092.097-.144.068-.134.145-.267.189-.41.108-.358.196-.722.302-1.082.032-.11.103-.207.142-.316.175-.488.343-.98.516-1.468.055-.155.085-.335.185-.453.33-.385.456-.84.51-1.324.02-.187-.018-.385.024-.565.134-.575.383-1.106.676-1.617.256-.446.515-.89.76-1.341.088-.162.118-.356.211-.513.125-.21.285-.399.43-.596l.244-.325.053.034.025-.331.09.05c.247-.439.585-.852.717-1.323.138-.493.713-.844.476-1.5-.278.028-.604-.025-.817.106a2.638 2.638 0 0 0-.818.791c-.466.698-1.014 1.34-1.544 1.993-.44.54-.65 1.215-1.069 1.773-.259.344-.351.81-.554 1.202-.407.79-.851 1.56-1.256 2.351-.236.462-.425.948-.636 1.423-.024.053-.038.115-.075.155-.215.227-.453.434-.65.675-.319.389-.602.807-.921 1.195-.107.13-.328.176-.412.313-.318.522-.872.638-1.373.826-.335.127-.866-.086-.907-.357-.055-.362-.06-.75.015-1.107.072-.349.253-.68.417-1.003.203-.396.437-.745.513-1.227.092-.584.14-1.076-.175-1.618-.217-.376-.544-.269-.786-.28-.329-.013-.759-.013-.916.44-.007.017-.04.033-.062.035-.306.034-.358.33-.357.506 0 .427-.297.672-.499.963-.133.192-.258.338-.281.595-.027.295-.187.576-.26.87-.118.468-.256.938-.303 1.416-.031.311.116.636.127.957.022.694.62 1.312 1.313 1.317.186.001.398-.047.551.027.632.304 1.217.029 1.776-.163.377-.129.687-.462 1.015-.72.19-.15.354-.334.584-.554 0 .264.053.457-.01.6-.325.744-.688 1.463-.907 2.262-.137.506-.417.986-.586 1.505-.17.521-.468 1.001-.715 1.496-.094.189-.232.358-.303.554-.198.547-.367 1.105-.558 1.655-.102.295-.245.576-.329.875-.122.439-.039.949-.465 1.277-.015.012-.017.047-.016.071.024.58-.323 1.052-.46 1.585-.058.228-.114.456-.189.679-.125.373-.268.74-.396 1.113-.134.389-.287.774-.38 1.174-.116.494-.447.91-.402 1.474.029.365-.161.748-.256 1.123-.053.204-.132.404-.163.61-.063.44-.115.881-.15 1.324-.06.774-.102 1.55-.151 2.325-.005.075.008.151-.006.223-.016.09-.084.18-.073.261.066.409.176.81.22 1.22.073.651.107 1.307.157 1.96.002.025 0 .053.01.074.329.617.633 1.247 1.207 1.694a2.876 2.876 0 0 0 1.722.618c.457.01.916-.231 1.38-.26.56-.034.938-.34 1.229-.735.208-.284.498-.448.717-.687.437-.479.982-.849 1.303-1.454.34-.639.82-1.201 1.193-1.825.453-.759.857-1.546 1.28-2.322.098-.18.178-.372.282-.547.194-.327.422-.634.596-.97.215-.42.381-.864.582-1.292.213-.455.428-.91.665-1.353.325-.61.474-1.313.986-1.824.049-.048.037-.16.049-.242.014-.096 0-.207.04-.29.232-.46.49-.907.713-1.37.17-.35.309-.717.449-1.08.095-.248.16-.506.25-.756.11-.304.23-.603.347-.904.05-.129.101-.258.158-.384.042-.094.092-.185.139-.277l.201-.396.143.06c-.06.298-.146.593-.176.894-.038.384-.104.743-.373 1.042-.055.061-.058.172-.078.262-.1.457-.2.914-.296 1.372-.056.263-.105.527-.149.793-.02.12.006.252-.029.367-.13.432-.373.853-.397 1.288-.05.87-.029 1.733-.315 2.578-.125.367-.157.783-.15 1.176.01.566.082 1.132.153 1.695.029.226.108.45.19.665.222.576.65.993 1.1 1.389.098.085.174.215.286.26.354.144.713.297 1.084.37.301.06.633.055.934-.007.266-.055.51-.224.761-.349.24-.12.493-.223.71-.376.204-.142.363-.346.553-.51.238-.208.493-.396.729-.606.137-.12.27-.255.37-.406.237-.357.44-.737.681-1.092.359-.525.77-1.018 1.1-1.56.482-.793.918-1.615 1.361-2.43.34-.625.656-1.264.995-1.89.262-.485.557-.953.81-1.442.271-.521.51-1.059.763-1.59.046-.096.149-.204.132-.288-.125-.627.446-1.008.53-1.593.085-.594.492-1.142.752-1.713.068-.148.103-.31.174-.457.216-.445.458-.878.658-1.33.202-.456.362-.93.545-1.395.12-.303.257-.6.368-.905.177-.49.344-.985.505-1.481.061-.19.028-.482.15-.568.36-.256.21-.665.37-.98.214-.425.34-.91.431-1.382.077-.4.09-.781.314-1.17.285-.494.383-1.093.572-1.643.103-.301.267-.586.335-.894.106-.487.152-.985.436-1.42.1-.153.097-.443.219-.498.636-.288 1.074-.801 1.564-1.26.407-.38.863-.71 1.241-1.115.562-.605 1.07-1.259 1.61-1.886.206-.239.452-.445.646-.693.266-.342.412-.767.83-1.002.213-.12.356-.366.527-.558.323-.361.644-.724.966-1.086.086.162.118.285.08.379-.195.48-.397.958-.617 1.427-.225.48-.473.948-.71 1.421-.056.113-.107.228-.161.341-.19.392-.371.787-.57 1.174-.196.383-.493.737-.595 1.142-.115.455-.327.838-.545 1.234-.077.14-.106.307-.179.451-.213.422-.437.839-.657 1.257-.126.238-.26.472-.377.714-.04.084-.038.187-.061.28-.03.112-.047.232-.1.333-.236.443-.484.88-.725 1.321a1.121 1.121 0 0 0-.084.194c-.173.537-.328 1.08-.521 1.609-.143.39-.44.727-.38 1.186.007.06-.054.128-.081.194-.277.645-.57 1.284-.826 1.938a38.302 38.302 0 0 0-.72 2.027c-.092.281-.123.583-.18.876-.016.084 0 .183-.041.251a3.04 3.04 0 0 0-.407 1.596c0 .12-.019.243-.045.361-.08.346-.216.686-.24 1.035-.04.594.006 1.192-.015 1.788-.026.763.223 1.41.756 1.945.137.138.303.261.479.342.339.157.651.5 1.085.198.069-.048.195-.004.291-.023.136-.026.27-.065.402-.108.377-.124.753-.253 1.111-.374.086-.132.147-.282.255-.382.165-.15.364-.264.546-.397.196-.143.39-.29.584-.437.252-.193.521-.368.745-.589.19-.186.305-.446.486-.642.332-.362.698-.694 1.033-1.054.263-.284.503-.59.747-.892.101-.125.173-.275.278-.397.259-.296.54-.573.792-.874.333-.398.587-.896.991-1.19.365-.267.52-.656.815-.952.231-.234.356-.574.75-.602a.208.208 0 0 0 .14-.092c.121-.202.207-.429.35-.613.577-.75 1.171-1.488 1.758-2.232.199-.252.393-.507.59-.76l.189-.243c.154-.247.256-.413.36-.576.07-.108.143-.213.212-.32.187-.289.415-.535.553-.873.144-.353.49-.622.738-.935.178-.226.345-.462.506-.7.272-.403.53-.814.808-1.212.028-.04.149-.014.195-.016-.028.207-.047.383-.079.556-.034.186-.07.373-.123.554-.1.343-.23.678-.316 1.023-.078.313-.065.656-.183.95-.154.384-.274.755-.279 1.176-.003.27-.026.61-.183.797-.381.454-.203 1.021-.403 1.515-.186.46-.432.945-.352 1.498.028.195-.057.43-.152.615-.208.41-.297.832-.27 1.287.011.172.009.35-.023.518-.08.428-.203.849-.259 1.279-.022.174.098.362.134.547.058.292.11.587.145.882.109.906.775 1.32 1.516 1.507.702.177 1.428.042 1.99-.538.247-.256.531-.477.717-.641.404-.762.966-1.275 1.384-1.891l.887-1.35c.13-.173.248-.347.372-.518.207-.286.426-.564.625-.856.257-.38.492-.774.75-1.152.192-.28.398-.553.615-.815.07-.084.195-.163.297-.165.056 0 .15.156.167.252.032.194-.055.499.045.574.405.305.237.774.38 1.146.196.507.563.828.914 1.175.244.24.588.377.834.616.511.497 1.153.645 1.81.725.465.056.941.013 1.411.008.093-.001.207-.003.275-.054.446-.336 1.085-.328 1.442-.82.01-.014.052-.004.07-.018.38-.306.775-.598 1.133-.929.218-.2.378-.462.568-.693.448-.543.879-1.098 1.173-1.746.018-.04.068-.063.098-.098.267-.306.537-.61.798-.921.158-.188.238-.478.57-.434.165.655-.215 1.38.333 1.946.015.612.521.838.935 1.053.451.234.98.318 1.479.46.066.019.155.011.217-.02.224-.11.444-.228.66-.354.51-.298 1.013-.606 1.525-.902.169-.098.352-.17.53-.255l-.037-.095c.128-.035.281-.037.38-.111.344-.262.667-.554 1.005-.826.229-.184.468-.354.703-.53.122-.1.205-.264.336-.366.273-.212.58-.38.856-.588.484-.366.957-.747 1.431-1.127a.453.453 0 0 0 .152-.194c.1-.316.379-.27.566-.354.087.212.208.373.214.539.029.745.426 1.335.782 1.939.125.212.351.36.513.554.292.35.672.568 1.074.75.235.107.483.183.724.276.17.066.34.134.508.209.06.026.114.116.161.11.432-.058.896.168 1.303-.158a.711.711 0 0 1 .43-.152c.378.013.673-.126.952-.369.228-.199.484-.484.743-.502.436-.03.497-.412.733-.606.296-.243.357-.747.848-.81.024-.003.04-.054.061-.082.243-.32.463-.661.734-.954.44-.473.924-.904 1.367-1.374.238-.251.425-.55.644-.82a8.09 8.09 0 0 1 .567-.647c.237-.236.524-.426.74-.678.357-.415.658-.875 1.01-1.293.434-.516.9-1.006 1.345-1.512.262-.298.506-.61.769-.907.096-.108.24-.173.334-.283.318-.374.617-.764.939-1.135.044-.052.171-.032.26-.045-.005.09.019.194-.019.266-.17.324-.377.63-.53.96-.094.2-.05.497-.185.638-.266.277-.365.604-.493.943-.265.7-.62 1.359-.874 2.072-.322.911-.822 1.76-1.24 2.637-.07.145-.104.305-.17.452-.114.252-.267.49-.354.75-.176.526-.288 1.075-.485 1.591-.221.577-.502 1.131-.767 1.69-.118.247-.265.48-.394.722-.016.03-.002.075-.012.11-.095.31-.196.618-.285.929-.062.213-.09.438-.166.646-.098.266-.23.52-.347.78-.031.072-.072.14-.092.214-.109.405-.207.813-.321 1.216a7.352 7.352 0 0 1-.236.693c-.107.272-.246.532-.342.807-.187.533-.324 1.084-.534 1.607-.181.453-.49.86-.642 1.32-.211.638-.332 1.305-.485 1.961-.068.291-.074.604-.184.876a5.4 5.4 0 0 0-.411 1.928c-.002.11.018.246-.036.327-.394.591-.33 1.29-.38 1.932-.058.732-.158 1.491.108 2.228.095.266-.12.64.289.8.017.007.002.077.02.106.203.318.35.713.632.93.332.257.778.476 1.185.494.446.02.898.088 1.354.08.63-.01 1.083-.36 1.623-.523.13-.04.22-.2.344-.283.113-.078.255-.114.37-.191.097-.066.168-.23.26-.238.49-.037.707-.5 1.103-.68.184-.082.341-.222.518-.34.248-.26.527-.528.776-.822.201-.238.418-.448.66-.645.184-.152.282-.406.45-.586.444-.474.912-.925 1.356-1.398.248-.263.457-.562.701-.828.3-.324.638-.613.92-.95.246-.293.422-.643.656-.947.26-.338.551-.652.83-.977.11-.13.237-.251.331-.393.34-.513.643-1.056 1.013-1.546.37-.49.814-.924 1.206-1.398.32-.387.613-.797.914-1.2.165-.22.321-.447.486-.667.12-.161.248-.316.372-.474l.064.045c.01-.11.022-.22.03-.298.141-.089.294-.136.37-.24.328-.456.634-.93.952-1.395.1-.146.22-.28.313-.43.26-.42.502-.852.767-1.268.335-.526.688-1.04 1.026-1.563.197-.304.37-.622.567-.925.359-.551.744-1.085 1.086-1.647.288-.477.514-.991.796-1.472.32-.545.696-1.058 1.005-1.609.24-.428.408-.897.624-1.34.075-.154.218-.275.292-.43.074-.155.087-.339.151-.5.087-.216.207-.42.296-.635.193-.468.394-.934.557-1.413.139-.408.229-.834.34-1.251.058-.215.065-.464.183-.636.293-.427.637-.817.75-1.346.014-.07.104-.146.177-.177.397-.168.806-.31 1.2-.486a51.26 51.26 0 0 0 1.738-.819c.222-.109.413-.339.637-.368.345-.046.6-.202.882-.374.252-.154.576-.188.868-.276l.053.126c-.194.19-.46.346-.566.577-.225.486-.554.864-.912 1.251-.282.305-.424.738-.646 1.104-.064.107-.22.162-.278.27-.188.349-.325.726-.526 1.067-.412.696-.85 1.377-1.282 2.06-.146.232-.324.444-.46.68-.206.364-.384.745-.583 1.112-.283.522-.637.999-.793 1.596-.099.377-.335.723-.535 1.068-.194.336-.476.63-.619.984-.202.507-.334 1.045-.456 1.579-.087.384-.106.783-.16 1.175-.008.056-.027.136-.068.158-.267.152-.232.402-.241.65-.006.149-.082.294-.1.444-.068.55-.193 1.106-.168 1.654.024.524.21 1.04.328 1.583l.243.06-.093.074c.165.27.294.575.506.802.301.325.657.602 1.004.882.11.088.27.174.402.165.453-.03.904-.097 1.354-.162.16-.023.319-.07.47-.13.242-.093.476-.292.715-.295.536-.004.79-.489 1.246-.633.326-.104.595-.386.892-.586.318-.213.661-.395.95-.643.246-.211.425-.5.643-.748.515-.583 1.038-1.16 1.554-1.743.045-.05.067-.12.1-.181.142-.266.276-.538.436-.794.043-.068.17-.085.247-.121.08.597.175 1.146.22 1.699.082.966 1.008 1.665 1.884 1.603.43-.03.896-.066 1.338-.355.375-.245.865-.323 1.244-.657.462-.407.997-.73 1.502-1.09.131-.093.266-.183.397-.278.22-.16.464-.296.651-.488.271-.277.485-.61.75-.892.463-.495.951-.966 1.419-1.457.12-.127.186-.306.304-.436.235-.257.49-.496.736-.743.008-.008.016-.02.026-.025.402-.163.565-.572.837-.86.46-.488.692-1.15 1.178-1.64.389-.39.7-.859 1.044-1.295.395-.5.796-.994 1.176-1.504.197-.263.338-.57.538-.83.253-.329.54-.632.77-.895.135-.214.241-.375.34-.541.082-.139.155-.283.23-.425.027-.05.041-.11.076-.155.12-.157.253-.303.366-.463.224-.316.42-.646.896-.604.393.035.777.025 1.118-.264.15-.127.398-.146.607-.188.216-.044.511.11.586-.265.004-.023.166-.014.318-.024-.057.193-.065.347-.14.452-.218.303-.458.59-.7.876-.119.14-.275.25-.389.393-.334.422-.65.86-.983 1.283-.267.338-.56.657-.824.997-.273.351-.52.723-.788 1.078-.181.24-.396.455-.567.7-.44.631-.86 1.275-1.294 1.909-.164.239-.451.442-.501.698-.077.388-.346.622-.52.927-.214.377-.476.727-.696 1.1-.197.337-.356.695-.548 1.035-.26.462-.563.902-.799 1.377-.333.67-.596 1.376-.94 2.04-.226.44-.502.845-.43 1.374.008.058-.067.123-.083.19-.025.104-.055.215-.044.32.035.32.089.638.135.958.016.109-.007.285.05.315.407.217.374.711.651 1.035.215.25.503.378.713.613.127.141.416.147.637.192.563.112.938-.317 1.377-.53.403-.194.738-.531 1.108-.799.573-.413 1.24-.709 1.64-1.336.016-.025.067-.025.094-.046.4-.322.799-.642 1.193-.969.163-.135.33-.27.467-.428.188-.217.328-.477.527-.681.21-.215.47-.38.698-.58.066-.057.082-.172.147-.235.11-.107.24-.194.408-.324.131.642-.049 1.182.314 1.719.226.334.342.807.557 1.197.054.098.088.255.167.282.353.122.52.521.944.564.261.027.516.354.756.333.842-.075 1.734.321 2.532-.263.317-.233.787-.142 1.094-.453.094-.096.25-.129.378-.19l.067.098c-.159.274-.306.555-.478.82-.185.286-.397.555-.589.836-.224.327-.43.668-.662.989-.26.36-.543.703-.813 1.056-.035.045-.037.118-.075.159-.227.24-.494.448-.684.713-.51.71-.986 1.446-1.48 2.168-.138.203-.288.398-.436.594-.152.2-.292.416-.469.593-.228.227-.49.422-.733.634-.023.02-.03.068-.032.104-.019.28-.045.495-.272.766-.42.502-.911.871-1.436 1.217-.332.22-.7.38-1.045.581-.388.225-.758.48-1.154.69-.191.101-.43.108-.634.193-.33.137-.574.399-.849.622-.516.42-1.223.489-1.775.9-.4.299-.934.413-1.401.626-.156.071-.277.215-.432.288-.394.186-.861.274-1.182.543-.376.316-.827.462-1.217.73-.15.102-.354.123-.514.216-.354.206-.686.456-1.047.65-.392.21-.812.366-1.21.566-.541.273-1.073.568-1.611.848-.187.098-.4.156-.57.276-.266.187-.496.426-.76.615-.109.077-.294.045-.4.123a7.86 7.86 0 0 1-1.377.784c-.493.227-.999.52-1.363.91-.535.574-1.35.66-1.87 1.237-.224.249-.565.39-.853.582-.303.2-.606.4-.909.602-.324.216-.644.436-.972.647-.37.237-.748.459-1.117.697-.331.216-.654.446-.981.669l-.947.646c-.358.244-.71.497-1.076.73-.291.185-.619.318-.893.525-.249.187-.415.495-.675.657-.473.295-.998.504-1.483.782-.238.137-.434.346-.722.581l-.257.022a.602.602 0 0 1-.226.283c-.198.15-.397.298-.602.439-.313.215-.631.423-.947.634-.305.202-.684.348-.894.623-.206.27-.536.321-.726.585-.08.112-.278.132-.399.224-.653.499-1.298 1.011-1.951 1.51-.359.275-.73.533-1.095.798-.572.416-1.15.824-1.712 1.253-.337.257-.646.551-.972.824-.122.102-.253.191-.449.338-.011.001-.12.01-.222.016-.041.104-.05.224-.114.275-.418.33-.854.64-1.27.972-.173.136-.292.343-.47.467-.34.237-.701.444-1.063.646-.053.03-.16-.035-.25-.058-.019.069-.018.158-.062.204-.31.323-.63.635-.945.952-.342.346-.69.687-1.021 1.043-.225.24-.384.569-.648.738-.368.237-.58.567-.79.917-.025.04-.018.117-.05.134-.467.248-.526.827-.893 1.132-.352.291-.244.844-.683 1.055-.028.014-.023.09-.04.135-.178.445-.36.887-.533 1.333-.055.141-.073.3-.142.432-.24.465-.252.677-.082 1.123.075.195.096.409.147.613.034.132.06.271.12.391.187.376.388.744.61 1.162.363-.094.073.336.246.432.263.202.727-.008.868.453.006.023.092.016.134.035.146.068.312.115.43.218.372.32.765.562 1.281.54.334-.013.743-.12.987.03.473.291.848-.035 1.252-.069.482-.04.946-.277 1.422-.419.377-.112.772-.18 1.137-.322.555-.219 1.092-.485 1.637-.731.464-.21.931-.41 1.389-.632.472-.229.938-.471 1.4-.722a59.289 59.289 0 0 0 1.513-.852c.27-.156.508-.4.795-.481.405-.114.783-.245 1.14-.475.481-.308 1.061-.448 1.456-.911.173-.205.437-.33.628-.524.558-.565 1.281-.875 1.925-1.306.109-.073.19-.186.298-.26.45-.315.91-.615 1.356-.935.242-.173.465-.373.694-.564.12-.1.23-.213.355-.305.28-.208.582-.391.85-.614.27-.226.49-.514.77-.727.352-.27.802-.421.997-.873.012-.028.06-.06.087-.057.405.05.542-.368.718-.55.321-.335.7-.552 1.05-.825.223-.174.459-.337.657-.537.248-.248.438-.556.697-.788.406-.364.88-.653 1.265-1.036.264-.264.604-.41.851-.735.238-.31.689-.492.934-.864.116-.178.225-.369.376-.512.24-.227.525-.406.77-.628.601-.541 1.19-1.096 1.783-1.644.606-.56 1.191-1.146 1.829-1.666.349-.285.407-.754.797-1.014.28-.187.439-.545.686-.792.194-.196.466-.316.658-.513.256-.263.452-.586.706-.853.6-.631 1.226-1.239 1.83-1.868.333-.347.643-.717.962-1.077.197-.222.391-.446.587-.669.219-.247.434-.498.658-.74.144-.157.292-.313.455-.45.168-.14.367-.244.531-.388.175-.154.297-.427.493-.491.47-.154.497-.536.566-.816l.668-.673c.133-.2.303-.346.451-.512.307-.343.6-.7.904-1.045.161-.183.359-.338.5-.535.3-.418.543-.881.867-1.278.473-.578 1-1.11 1.496-1.67.14-.157.24-.349.377-.509.158-.185.327-.365.51-.525.213-.187.481-.32.664-.531.371-.428.71-.886 1.045-1.345.196-.269.483-.347.763-.47.47-.207.914-.468 1.375-.692.705-.343 1.42-.667 2.123-1.014.445-.22.872-.476 1.317-.696.196-.097.422-.133.628-.214.267-.105.541-.204.788-.348.326-.19.629-.422.842-.568.632-.34 1.172-.62 1.701-.916.334-.186.652-.402.982-.594.269-.157.547-.296.82-.446.081-.045.152-.11.236-.152.442-.222.893-.427 1.33-.66.299-.162.563-.398.87-.536.519-.232 1.062-.405 1.587-.622.136-.056.235-.257.362-.268.554-.046.966-.405 1.44-.617.475-.213.91-.51 1.377-.739.468-.23.958-.41 1.43-.63.417-.195.818-.425 1.235-.617.471-.218.962-.393 1.427-.62.465-.229.907-.502 1.363-.749.159-.085.334-.14.492-.225.273-.145.54-.303.81-.456.07-.021.105-.167.157-.174.418-.056.767-.25 1.127-.46.425-.248.9-.408 1.344-.625.221-.109.416-.27.632-.39.183-.102.386-.168.568-.27.293-.165.558-.395.867-.513.623-.237 1.285-.347 1.774-.894.22-.246.614-.337.936-.485.418-.19.86-.338 1.26-.56.538-.298 1.047-.649 1.566-.98.035-.023.054-.075.073-.116.147-.333.312-.661.427-1.005.035-.104-.044-.27-.114-.38" mask="url(#b)"/>
    </g>
</svg>
